<svg viewBox="0 0 207 92" xmlns="http://www.w3.org/2000/svg">
            
                <path fill="#FFF032" d="M188.605809,31.8456981 C186.675195,30.7125336 184.63757,31.0780137 183.025638,32.4990966 C181.796771,33.5834913 180.674034,34.920549 179.892028,36.3560279 C177.61157,40.5396585 176.922758,45.1378327 176.853083,49.848824 C176.856904,52.6457456 177.035061,55.418576 178.161326,58.0233561 C179.518077,61.1619604 182.477646,61.8344555 184.812786,59.3847988 C185.999024,58.14058 186.983881,56.596691 187.690627,55.0222475 C190.233322,49.3617131 191.173199,43.3039688 191.670625,37.1748326 C191.866715,34.7604312 190.570525,32.9979593 188.605809,31.8456981 M205.281057,32.7667432 C203.298407,39.6847171 202.162735,46.7398929 202.270334,53.9457853 C202.327661,57.8376781 202.701319,61.7210509 204.665742,65.2277794 C205.062918,65.9358236 205.576808,66.5780579 206.046012,67.2649489 C204.842428,69.6343998 201.435998,71.2725967 197.892865,70.623899 C193.251689,69.7733645 191.990483,66.4719982 191.344006,62.6694188 L191.289324,62.3377251 C191.253752,62.1156166 191.219943,61.8920391 191.187604,61.6675803 L191.139685,61.3297169 C191.100584,61.0476744 191.063248,60.7641629 191.025911,60.47977 C190.808655,60.9192863 190.593456,61.3599777 190.37326,61.7974374 C188.839823,64.8528979 186.849529,67.5411156 183.821755,69.2418907 C178.325076,72.3293747 172.105777,70.6227238 168.56088,65.1510991 C166.484154,61.9452159 165.499003,58.3621009 165.20384,54.6206307 C164.620275,47.20967 165.70009,40.0801642 169.43314,33.5300207 C171.950552,29.1139989 175.30818,25.5582067 180.219824,23.7960286 C186.416192,21.5725935 191.505993,23.3485799 195.030017,28.8883649 C195.115273,29.0223351 195.221991,29.1422031 195.386918,29.3578481 C199.510676,24.8962882 204.428494,25.1410188 207,27.360047 C206.431429,29.1401466 205.805236,30.9387552 205.281057,32.7667432 M116.562188,41.3481803 C116.901743,37.9175445 117.064906,34.4404892 116.92144,31.000452 C116.803257,28.1735634 115.601143,25.6087393 113.204266,23.9032635 C109.893088,21.5473272 106.457847,22.06323 103.128442,23.8621323 C99.579723,25.77914 97.0223283,28.799639 94.6789563,32.0140422 C93.9619215,32.9967841 93.2831051,34.0083178 92.5149165,35.1100464 C92.6339814,33.3854739 92.8579996,31.8354153 92.8230151,30.2912326 C92.7521642,27.1767194 91.1434663,25.3366858 88.2382847,25.0011728 C85.8070106,24.7203054 83.6517904,25.6357684 81.6438579,26.9026093 C81.433363,27.035992 81.4218975,27.6018397 81.434539,27.9626191 C81.5071538,30.0923338 81.9316713,32.2652363 81.6473857,34.3411867 C80.9500481,39.4352858 79.827017,44.4697445 79.0808774,49.5588491 C78.6472463,52.5191202 78.3976512,55.5419696 78.448511,58.5301512 C78.5111303,62.166443 81.0050237,64.3936974 84.6231241,64.2291726 C86.0980579,64.1624813 87.5521186,63.5878197 89.0108831,63.2249838 C89.8916688,63.0058133 90.1930056,62.454949 90.1494955,61.5112818 C89.9875086,58.0221809 90.5031621,54.5977148 91.3995291,51.2387648 C92.8912202,45.6475658 95.1122935,40.3971682 98.9735213,36.0161079 C99.87665,34.9913535 101.028492,34.1085017 102.22208,33.4465831 C103.572069,32.6988767 104.650708,33.256792 105.007609,34.7789402 C105.24809,35.8039885 105.368625,36.9248136 105.233097,37.9616136 C104.586325,42.9008831 103.821958,47.8239938 103.122563,52.7556246 C102.636308,56.1830287 102.035104,59.6074948 102.513127,63.0930702 C102.846215,65.5209861 103.54267,67.7908407 105.62998,69.3044688 C109.147536,71.854897 114.706834,70.9826218 117.662876,67.4042074 C115.371245,64.3240682 114.792973,62.5119451 114.713008,58.6635338 C114.590415,52.8070386 115.991558,47.1232945 116.562188,41.3481803 M56.7795964,31.8456981 C54.8489825,30.7125336 52.8110632,31.0780137 51.1991314,32.4990966 C49.9702649,33.5834913 48.8478218,34.920549 48.0655218,36.3560279 C45.7850631,40.5396585 45.0962511,45.1378327 45.0268701,49.848824 C45.030398,52.6457456 45.2088482,55.418576 46.3348192,58.0233561 C47.6918641,61.1619604 50.6511392,61.8344555 52.9865736,59.3847988 C54.1725179,58.14058 55.1573751,56.596691 55.8644143,55.0222475 C58.4068156,49.3617131 59.3469866,43.3039688 59.844119,37.1748326 C60.0402085,34.7604312 58.7440189,32.9979593 56.7795964,31.8456981 M73.4548444,32.7667432 C71.4721947,39.6847171 70.3365222,46.7398929 70.4441215,53.9457853 C70.501449,57.8376781 70.8748127,61.7210509 72.8395292,65.2277794 C73.2364119,65.9358236 73.7505955,66.5780579 74.2197991,67.2649489 C73.0159215,69.6343998 69.6094918,71.2725967 66.0666521,70.623899 C61.4254761,69.7733645 60.1639771,66.4719982 59.5177932,62.6694188 L59.4631116,62.3377251 C59.4275391,62.1156166 59.3937306,61.8920391 59.361392,61.6675803 L59.3134721,61.3297169 C59.2743718,61.0476744 59.2367414,60.7641629 59.1996991,60.47977 C58.9821485,60.9192863 58.7669499,61.3599777 58.5467535,61.7974374 C57.0133162,64.8528979 55.0233169,67.5411156 51.9955427,69.2418907 C46.49857,72.3293747 40.2795648,70.6227238 36.7346672,65.1510991 C34.6576476,61.9452159 33.6724965,58.3621009 33.3776273,54.6206307 C32.7937687,47.20967 33.8738777,40.0801642 37.6069272,33.5300207 C40.1243396,29.1139989 43.4819674,25.5582067 48.3936115,23.7960286 C54.5899798,21.5725935 59.6794862,23.3485799 63.2038047,28.8883649 C63.289061,29.0223351 63.3954844,29.1422031 63.5607052,29.3578481 C67.6844636,24.8962882 72.6022815,25.1410188 75.1734936,27.360047 C74.6052163,29.1401466 73.9790236,30.9387552 73.4548444,32.7667432 M144.576522,31.297478 C142.723815,30.2218971 140.729699,30.5153976 139.177447,31.8621506 C137.87479,32.9917896 136.687081,34.4020021 135.863329,35.9153365 C133.590808,40.0922098 132.913168,44.6906778 132.910228,49.4040195 C132.910228,50.1881564 132.856134,50.9767003 132.920517,51.7552551 C133.113079,54.0976769 133.324456,56.4506753 134.589777,58.5192808 C136.003267,60.8299728 138.281668,61.3056258 140.303418,59.5293455 C141.387937,58.5762769 142.341925,57.347923 143.00957,56.062573 C146.163171,49.9904329 147.119805,43.3377552 147.723655,36.6336635 C147.940911,34.2198497 146.559759,32.4494454 144.576522,31.297478 M162.331291,26.7254514 C161.628367,29.3099597 160.672321,31.801629 160.308953,34.3782048 C159.549584,39.7584595 158.988656,45.1736756 158.553849,50.5921235 C158.458891,51.772589 158.375105,52.9545234 158.294847,54.1367515 L158.199889,55.5554841 C157.745678,62.413524 157.324101,69.2730328 155.569291,75.9718362 C154.583552,79.735341 153.271487,83.37839 150.694983,86.3944821 C146.662949,91.1148748 141.357068,92.3808344 135.469386,91.907238 C131.499383,91.5890588 127.813372,90.4838047 124.891727,87.5535006 C121.585841,84.2374445 121.312727,79.4077603 124.349027,76.3872613 C125.191594,75.5496539 126.301983,74.9838061 127.082814,74.4379363 C128.426335,76.1695598 129.466462,77.8027622 130.79352,79.1486338 C132.539216,80.9184505 134.844664,81.6405969 137.301515,81.6379527 C141.032212,81.6338396 143.391459,79.5690534 144.848166,76.2788513 C146.341915,72.9052115 146.749087,69.3006495 146.982219,65.6766971 C147.095698,63.9189259 147.001916,62.147934 146.852865,60.264125 C146.630022,60.7409532 146.414824,61.2216006 146.183456,61.6943156 C144.632085,64.8696442 142.598282,67.6389491 139.382356,69.2718577 C133.966818,72.0217721 127.928615,70.1964283 124.492492,64.8637683 C122.52954,61.8174154 121.559088,58.4202721 121.178375,54.8709434 C120.437821,47.9703034 121.328308,41.2879525 124.321098,34.9790141 C126.623018,30.1272954 129.888921,26.1469705 134.817029,23.7563664 C139.60314,21.434804 145.099525,21.9427743 148.519478,25.1624658 C149.63663,26.2142494 150.505656,27.5313291 151.488455,28.7261904 C155.856223,24.8557446 159.353494,24.2408332 162.331291,26.7254514 M24.4107237,53.0585265 C23.4229267,58.8871113 23.0913092,64.744194 23.7169139,70.6321252 C23.8104019,71.5105701 23.5070071,71.861948 22.728823,72.1342953 C19.8844968,73.1282014 17.0642776,73.5656611 14.6168341,71.3266549 C12.6191911,69.4992544 12.0532658,66.9779119 11.8948067,64.3854712 C11.589354,59.3968443 12.5900864,54.5636346 13.6740172,49.7501091 L13.8915677,48.7876391 C14.0800135,47.9559075 13.976824,47.322487 13.5478967,46.5979903 C8.73738412,38.4763412 4.57922916,30.0438578 1.98831997,20.9347661 C1.12752545,17.908685 0.575123498,14.7741939 0.139140481,11.6540986 C-0.210116313,9.15067756 0.0532962182,6.6211088 1.44414966,4.38445295 C3.16956054,1.61044736 5.89276397,1.20559884 8.80558915,1.53846776 C10.0562107,1.68095798 11.266556,2.16219301 12.5004203,2.46920804 C13.1557178,2.63167627 13.2371522,3.0003881 13.1983459,3.64497275 C12.5648035,14.1275527 14.2966821,24.2799078 17.5549422,34.2110359 C17.5778732,34.2809589 17.6540159,34.3326667 17.8230585,34.5300965 C19.0022412,31.4223406 20.0799983,28.4194692 21.2750562,25.463605 C23.8838987,19.008357 26.8531694,12.7355554 31.0865851,7.1502323 C32.8863747,4.77637452 34.8922494,2.6099355 37.5457778,1.13949512 C42.6755605,-1.70355213 48.4873935,0.99641731 49.5563309,6.76301144 C49.6262999,7.14083089 49.440206,7.81479496 49.1597422,7.97256249 C43.2650048,11.2983137 39.1712331,16.3583326 35.7209993,21.9897814 C29.8515448,31.5710005 26.2834222,42.011274 24.4107237,53.0585265"></path>

</svg>